<?xml version="1.0" encoding="UTF-8"?> <svg xmlns="http://www.w3.org/2000/svg" width="160" height="52" fill="none" viewBox="0 0 160 52"><g clip-path="url(#a)"><path fill="#2158F3" d="M25.111 8.637H11.733C5.244 8.637 0 13.935 0 20.435a11.8 11.8 0 0 0 2.222 6.856C.49 29.25-.4 32.011.133 34.637c.623 3.116 3.156 6.456 8.667 6.456h6.489a2.582 2.582 0 0 1 0 5.164h-1.245V52h1.111c4.578 0 8.312-3.74 8.312-8.325 0-4.586-3.734-8.326-8.311-8.326H8.578c-1.645 0-3.067-1.157-3.111-2.582 0-.757.31-1.469.844-1.914 1.6.846 3.422 1.335 5.378 1.335 6.489 0 11.733-5.298 11.733-11.753 0-2.449-.755-4.764-2.044-6.634h3.689V8.637h.044ZM11.733 26.445c-3.333 0-6-2.715-6-6.01a6.008 6.008 0 0 1 6-6.01c3.334 0 6 2.715 6 6.01.045 3.295-2.666 6.01-6 6.01Zm42.756-4.986c0-7.658-6.222-13.89-13.867-13.89-7.644 0-13.866 6.232-13.866 13.89 0 7.657 6.222 13.89 13.866 13.89h8.89v-5.654h-8.89c-3.689 0-6.178-2.003-7.11-5.12H54.4c.133-1.113.089-2.092.089-3.116Zm-13.867-8.147c3.822 0 6.445 2.404 7.422 5.61H33.467c.889-3.34 3.333-5.61 7.155-5.61Zm74.889 8.147c0-7.658-6.222-13.89-13.867-13.89-7.644 0-13.866 6.232-13.866 13.89 0 7.657 6.222 13.89 13.866 13.89h8.889v-5.654h-8.889c-3.689 0-6.177-2.003-7.11-5.12h20.888c.089-1.113.089-2.092.089-3.116Zm-13.867-8.147c3.823 0 6.445 2.404 7.423 5.61H94.489c.844-3.34 3.289-5.61 7.155-5.61ZM84.622 35.35H78.89V21.102c0-4.274-3.467-7.747-7.733-7.747-4.267 0-7.734 3.473-7.734 7.747v14.29H57.69v-14.29c0-7.435 6.044-13.49 13.467-13.49 7.422 0 13.466 6.055 13.466 13.49v14.246Zm34 0V20.3c0-8.102 5.6-13.756 15.778-12.554v5.698c-6.311-1.068-10.044 1.915-10.044 6.812v15.092h-5.734Zm37.022-18.922c1.689-1.558 2.712-3.74 2.712-6.322 0-5.565-4.667-10.106-10.4-10.106-5.734 0-10.4 4.541-10.4 10.106 0 2.627 1.022 4.764 2.711 6.322-2.667 1.87-4.356 4.764-4.356 8.415 0 6.5 5.378 11.708 12.045 11.708 6.666 0 12.044-5.253 12.044-11.709 0-3.606-1.689-6.544-4.356-8.414Zm-7.688-10.774c2.4 0 4.311 1.914 4.311 4.274 0 2.36-1.911 4.274-4.311 4.274s-4.312-1.914-4.312-4.274c0-2.36 1.912-4.274 4.312-4.274Zm0 25.243c-3.289 0-5.912-2.627-5.912-5.832s2.667-5.832 5.912-5.832c3.288 0 5.911 2.627 5.911 5.832 0 3.25-2.667 5.832-5.911 5.832Z"></path></g><defs><clipPath id="a"><path fill="#fff" d="M0 0h160v52H0z"></path></clipPath></defs></svg> 